<svg id="visual" viewBox="0 0 960 540" width="960" height="540" xmlns="http://www.w3.org/2000/svg" xmlns:xlink="http://www.w3.org/1999/xlink" version="1.1"><path d="M0 39L12.3 44.3C24.7 49.7 49.3 60.3 74 69.3C98.7 78.3 123.3 85.7 148 92C172.7 98.3 197.3 103.7 221.8 99.2C246.3 94.7 270.7 80.3 295.2 69.5C319.7 58.7 344.3 51.3 369 54C393.7 56.7 418.3 69.3 443 70.3C467.7 71.3 492.3 60.7 517 58.8C541.7 57 566.3 64 591 61.2C615.7 58.3 640.3 45.7 664.8 42.2C689.3 38.7 713.7 44.3 738.2 50.7C762.7 57 787.3 64 812 67.5C836.7 71 861.3 71 886 74.7C910.7 78.3 935.3 85.7 947.7 89.3L960 93L960 0L947.7 0C935.3 0 910.7 0 886 0C861.3 0 836.7 0 812 0C787.3 0 762.7 0 738.2 0C713.7 0 689.3 0 664.8 0C640.3 0 615.7 0 591 0C566.3 0 541.7 0 517 0C492.3 0 467.7 0 443 0C418.3 0 393.7 0 369 0C344.3 0 319.7 0 295.2 0C270.7 0 246.3 0 221.8 0C197.3 0 172.7 0 148 0C123.3 0 98.7 0 74 0C49.3 0 24.7 0 12.3 0L0 0Z" fill="#7dbc2a"></path><path d="M0 104L12.3 107.5C24.7 111 49.3 118 74 135C98.7 152 123.3 179 148 195.2C172.7 211.3 197.3 216.7 221.8 205C246.3 193.3 270.7 164.7 295.2 152.2C319.7 139.7 344.3 143.3 369 144.2C393.7 145 418.3 143 443 135.8C467.7 128.7 492.3 116.3 517 119.2C541.7 122 566.3 140 591 140C615.7 140 640.3 122 664.8 118.3C689.3 114.7 713.7 125.3 738.2 136C762.7 146.7 787.3 157.3 812 165.5C836.7 173.7 861.3 179.3 886 184.8C910.7 190.3 935.3 195.7 947.7 198.3L960 201L960 91L947.7 87.3C935.3 83.7 910.7 76.3 886 72.7C861.3 69 836.7 69 812 65.5C787.3 62 762.7 55 738.2 48.7C713.7 42.3 689.3 36.7 664.8 40.2C640.3 43.7 615.7 56.3 591 59.2C566.3 62 541.7 55 517 56.8C492.3 58.7 467.7 69.3 443 68.3C418.3 67.3 393.7 54.7 369 52C344.3 49.3 319.7 56.7 295.2 67.5C270.7 78.3 246.3 92.7 221.8 97.2C197.3 101.7 172.7 96.3 148 90C123.3 83.7 98.7 76.3 74 67.3C49.3 58.3 24.7 47.7 12.3 42.3L0 37Z" fill="#85c135"></path><path d="M0 228L12.3 231.5C24.7 235 49.3 242 74 251C98.7 260 123.3 271 148 295.3C172.7 319.7 197.3 357.3 221.8 366.3C246.3 375.3 270.7 355.7 295.2 331.3C319.7 307 344.3 278 369 258.2C393.7 238.3 418.3 227.7 443 231.3C467.7 235 492.3 253 517 265.7C541.7 278.3 566.3 285.7 591 288.3C615.7 291 640.3 289 664.8 277.2C689.3 265.3 713.7 243.7 738.2 251.8C762.7 260 787.3 298 812 319.7C836.7 341.3 861.3 346.7 886 350.2C910.7 353.7 935.3 355.3 947.7 356.2L960 357L960 199L947.7 196.3C935.3 193.7 910.7 188.3 886 182.8C861.3 177.3 836.7 171.7 812 163.5C787.3 155.3 762.7 144.7 738.2 134C713.7 123.3 689.3 112.7 664.8 116.3C640.3 120 615.7 138 591 138C566.3 138 541.7 120 517 117.2C492.3 114.3 467.7 126.7 443 133.8C418.3 141 393.7 143 369 142.2C344.3 141.3 319.7 137.7 295.2 150.2C270.7 162.7 246.3 191.3 221.8 203C197.3 214.7 172.7 209.3 148 193.2C123.3 177 98.7 150 74 133C49.3 116 24.7 109 12.3 105.5L0 102Z" fill="#8dc640"></path><path d="M0 271L12.3 279.2C24.7 287.3 49.3 303.7 74 317.2C98.7 330.7 123.3 341.3 148 359.3C172.7 377.3 197.3 402.7 221.8 406.3C246.3 410 270.7 392 295.2 374C319.7 356 344.3 338 369 322.7C393.7 307.3 418.3 294.7 443 300C467.7 305.3 492.3 328.7 517 339.5C541.7 350.3 566.3 348.7 591 345C615.7 341.3 640.3 335.7 664.8 323.8C689.3 312 713.7 294 738.2 305.8C762.7 317.7 787.3 359.3 812 381C836.7 402.7 861.3 404.3 886 402.5C910.7 400.7 935.3 395.3 947.7 392.7L960 390L960 355L947.7 354.2C935.3 353.3 910.7 351.7 886 348.2C861.3 344.7 836.7 339.3 812 317.7C787.3 296 762.7 258 738.2 249.8C713.7 241.7 689.3 263.3 664.8 275.2C640.3 287 615.7 289 591 286.3C566.3 283.7 541.7 276.3 517 263.7C492.3 251 467.7 233 443 229.3C418.3 225.7 393.7 236.3 369 256.2C344.3 276 319.7 305 295.2 329.3C270.7 353.7 246.3 373.3 221.8 364.3C197.3 355.3 172.7 317.7 148 293.3C123.3 269 98.7 258 74 249C49.3 240 24.7 233 12.3 229.5L0 226Z" fill="#8dc640"></path><path d="M0 471L12.3 478.2C24.7 485.3 49.3 499.7 74 504.2C98.7 508.7 123.3 503.3 148 501.5C172.7 499.7 197.3 501.3 221.8 499.5C246.3 497.7 270.7 492.3 295.2 490.5C319.7 488.7 344.3 490.3 369 487.7C393.7 485 418.3 478 443 473.5C467.7 469 492.3 467 517 472.3C541.7 477.7 566.3 490.3 591 490.3C615.7 490.3 640.3 477.7 664.8 476.8C689.3 476 713.7 487 738.2 489.8C762.7 492.7 787.3 487.3 812 482.8C836.7 478.3 861.3 474.7 886 474.7C910.7 474.7 935.3 478.3 947.7 480.2L960 482L960 388L947.7 390.7C935.3 393.3 910.7 398.7 886 400.5C861.3 402.3 836.7 400.7 812 379C787.3 357.3 762.7 315.7 738.2 303.8C713.7 292 689.3 310 664.8 321.8C640.3 333.7 615.7 339.3 591 343C566.3 346.7 541.7 348.3 517 337.5C492.3 326.7 467.7 303.3 443 298C418.3 292.7 393.7 305.3 369 320.7C344.3 336 319.7 354 295.2 372C270.7 390 246.3 408 221.8 404.3C197.3 400.7 172.7 375.3 148 357.3C123.3 339.3 98.7 328.7 74 315.2C49.3 301.7 24.7 285.3 12.3 277.2L0 269Z" fill="#85c135"></path><path d="M0 541L12.3 541C24.7 541 49.3 541 74 541C98.7 541 123.3 541 148 541C172.7 541 197.3 541 221.8 541C246.3 541 270.7 541 295.2 541C319.7 541 344.3 541 369 541C393.7 541 418.3 541 443 541C467.7 541 492.3 541 517 541C541.7 541 566.3 541 591 541C615.7 541 640.3 541 664.8 541C689.3 541 713.7 541 738.2 541C762.7 541 787.3 541 812 541C836.7 541 861.3 541 886 541C910.7 541 935.3 541 947.7 541L960 541L960 480L947.7 478.2C935.3 476.3 910.7 472.7 886 472.7C861.3 472.7 836.7 476.3 812 480.8C787.3 485.3 762.7 490.7 738.2 487.8C713.7 485 689.3 474 664.8 474.8C640.3 475.7 615.7 488.3 591 488.3C566.3 488.3 541.7 475.7 517 470.3C492.3 465 467.7 467 443 471.5C418.3 476 393.7 483 369 485.7C344.3 488.3 319.7 486.7 295.2 488.5C270.7 490.3 246.3 495.7 221.8 497.5C197.3 499.3 172.7 497.7 148 499.5C123.3 501.3 98.7 506.7 74 502.2C49.3 497.7 24.7 483.3 12.3 476.2L0 469Z" fill="#7dbc2a"></path></svg>